<svg width="34" height="34" viewBox="0 0 34 34" fill="none" xmlns="http://www.w3.org/2000/svg">
<g clip-path="url(#clip0_37_6863)">
<path d="M16.8337 33.6666C26.0384 33.6666 33.5003 26.2047 33.5003 17C33.5003 7.79523 26.0384 0.333313 16.8337 0.333313C7.62891 0.333313 0.166992 7.79523 0.166992 17C0.166992 26.2047 7.62891 33.6666 16.8337 33.6666Z" fill="#111111"/>
<path d="M23.3971 14.4574C23.3207 14.502 21.502 15.4425 21.502 17.5279C21.5877 19.9062 23.7971 20.7402 23.835 20.7402C23.7971 20.7848 23.5014 21.8763 22.6256 23.0206C21.9306 24.0063 21.1592 25.0001 19.9877 25.0001C18.8735 25.0001 18.4735 24.3431 17.1877 24.3431C15.807 24.3431 15.4163 25.0001 14.3592 25.0001C13.1877 25.0001 12.3592 23.953 11.6262 22.9766C10.6741 21.6987 9.86474 19.6932 9.83617 17.7675C9.81691 16.7471 10.0269 15.7441 10.5598 14.8921C11.3119 13.7027 12.6548 12.8953 14.1213 12.8687C15.2449 12.8334 16.2449 13.5875 16.9306 13.5875C17.5877 13.5875 18.8163 12.8687 20.2064 12.8687C20.8064 12.8693 22.4064 13.0377 23.3971 14.4574ZM16.8356 12.6649C16.6356 11.7331 17.1877 10.8012 17.702 10.2068C18.3592 9.48798 19.3971 9.00006 20.2921 9.00006C20.3492 9.93191 19.9871 10.8458 19.3399 11.5114C18.7592 12.2303 17.7592 12.7714 16.8356 12.6649Z" fill="white"/>
</g>
<defs>
<clipPath id="clip0_37_6863">
<rect width="33.3333" height="33.3333" fill="white" transform="translate(0.166992 0.333313)"/>
</clipPath>
</defs>
</svg>
