<svg width="34" height="34" viewBox="0 0 34 34" fill="none" xmlns="http://www.w3.org/2000/svg">
<g clip-path="url(#clip0_37_6849)">
<path d="M7.88737 20.477L6.72708 24.8085L2.48626 24.8982C1.21888 22.5475 0.5 19.858 0.5 16.9999C0.5 14.2362 1.17214 11.6299 2.36354 9.33508H2.36445L6.13997 10.0273L7.79388 13.7801C7.44772 14.7893 7.25905 15.8726 7.25905 16.9999C7.25918 18.2234 7.48079 19.3956 7.88737 20.477Z" fill="#FBBB00"/>
<path d="M33.5423 13.8866C33.7337 14.8948 33.8335 15.936 33.8335 17.0001C33.8335 18.1934 33.708 19.3573 33.469 20.48C32.6577 24.3005 30.5377 27.6366 27.6009 29.9974L27.6 29.9965L22.8445 29.7538L22.1715 25.5524C24.1202 24.4095 25.6431 22.621 26.4453 20.48H17.5332V13.8866H33.5423Z" fill="#518EF8"/>
<path d="M27.5999 29.9966L27.6008 29.9975C24.7446 32.2932 21.1163 33.6669 17.1667 33.6669C10.8197 33.6669 5.30137 30.1193 2.48633 24.8986L7.88743 20.4774C9.29492 24.2337 12.9186 26.9078 17.1667 26.9078C18.9927 26.9078 20.7034 26.4141 22.1713 25.5524L27.5999 29.9966Z" fill="#28B446"/>
<path d="M27.8047 4.17035L22.4054 8.59067C20.8862 7.64106 19.0904 7.09249 17.1664 7.09249C12.8221 7.09249 9.13066 9.88917 7.79368 13.7802L2.36419 9.3352H2.36328C5.13711 3.98722 10.725 0.333374 17.1664 0.333374C21.2104 0.333374 24.9182 1.77387 27.8047 4.17035Z" fill="#F14336"/>
</g>
<defs>
<clipPath id="clip0_37_6849">
<rect width="33.3333" height="33.3333" fill="white" transform="translate(0.5 0.333313)"/>
</clipPath>
</defs>
</svg>
